<svg xmlns="http://www.w3.org/2000/svg" version="1.1" xmlns:xlink="http://www.w3.org/1999/xlink" xmlns:svgjs="http://svgjs.dev/svgjs" width="1270" height="600" preserveAspectRatio="none" viewBox="0 0 1270 600"><g mask="url(&quot;#SvgjsMask1073&quot;)" fill="none"><path d="M713.44 611.94C820.8 523.2 753.09 109.02 937.8 101.95 1122.5 94.88 1263.37 301.24 1386.51 305.95" stroke="rgba(71, 71, 71, 0.52)" stroke-width="2"></path><path d="M223.82 625.63C334.84 616.48 409.33 392.59 603.08 391.74 796.82 390.89 792.71 466.74 982.33 466.74 1171.96 466.74 1264.94 392.1 1361.59 391.74" stroke="rgba(71, 71, 71, 0.52)" stroke-width="2"></path><path d="M186.65 612.99C337.96 553.43 351.57 106.8 575.06 91.25 798.55 75.7 769.27 166.25 963.48 166.25 1157.68 166.25 1252.99 91.59 1351.89 91.25" stroke="rgba(71, 71, 71, 0.52)" stroke-width="2"></path><path d="M521.1 627.76C634 603.27 601.04 308.09 854.28 307.54 1107.51 306.99 1349.54 462.5 1520.63 463.54" stroke="rgba(71, 71, 71, 0.52)" stroke-width="2"></path><path d="M410 606.49C500.03 603.27 474.28 467.3 739.45 460.54 1004.62 453.78 1223.08 224.24 1398.35 220.54" stroke="rgba(71, 71, 71, 0.52)" stroke-width="2"></path></g><defs><mask id="SvgjsMask1073"><rect width="1270" height="600" fill="#ffffff"></rect></mask></defs></svg>