<svg xmlns="http://www.w3.org/2000/svg" version="1.1" xmlns:xlink="http://www.w3.org/1999/xlink" xmlns:svgjs="http://svgjs.dev/svgjs" width="1920" height="500" preserveAspectRatio="none" viewBox="0 0 1920 500"><g mask="url(&quot;#SvgjsMask1042&quot;)" fill="none"><path d="M-262.55 439.32C-21.23 439.16 215.79 334.21 697.01 334.32 1178.24 334.43 1408.44 586.15 1656.58 588.29" stroke="rgba(71, 71, 71, 0.52)" stroke-width="2"></path><path d="M-69.46 389.79C160.9 388.07 485.51 164.28 824.11 164.79 1162.7 165.3 1120.87 553.13 1270.89 584.2" stroke="rgba(71, 71, 71, 0.52)" stroke-width="2"></path><path d="M-163.38 201.71C-11.92 201.79 137.92 264.21 439.22 264.21 740.52 264.21 729.85 198.91 1041.83 201.71 1353.8 204.51 1466.21 571.91 1644.43 588.02" stroke="rgba(71, 71, 71, 0.52)" stroke-width="2"></path><path d="M-342.18 297.5C-107.07 296.35 225.66 96.25 576.76 97.5 927.86 98.75 876.76 527.59 1036.23 566.41" stroke="rgba(71, 71, 71, 0.52)" stroke-width="2"></path><path d="M-122.99 24.54C88.02 25.42 370.18 185.57 703.76 194.54 1037.34 203.51 987.18 499.79 1117.14 518.28" stroke="rgba(71, 71, 71, 0.52)" stroke-width="2"></path></g><defs><mask id="SvgjsMask1042"><rect width="1920" height="500" fill="#ffffff"></rect></mask></defs></svg>