<svg xmlns="http://www.w3.org/2000/svg" version="1.1" xmlns:xlink="http://www.w3.org/1999/xlink" xmlns:svgjs="http://svgjs.dev/svgjs" width="1440" height="560" preserveAspectRatio="none" viewBox="0 0 1440 560"><g mask="url(&quot;#SvgjsMask1152&quot;)" fill="none"><path d="M1247.48 13.59a5.6 5.6 0 1 0-8.71 7.03 5.6 5.6 0 1 0 8.71-7.03zM1235.03 23.64a5.6 5.6 0 1 0-8.72 7.03 5.6 5.6 0 1 0 8.72-7.03zM1222.58 33.68a5.6 5.6 0 1 0-8.72 7.03 5.6 5.6 0 1 0 8.72-7.03zM1210.12 43.73a5.6 5.6 0 1 0-8.71 7.03 5.6 5.6 0 1 0 8.71-7.03zM1262.35-18.95a5.6 5.6 0 1 0-8.72 7.03 5.6 5.6 0 1 0 8.72-7.03zM1249.89-8.91a5.6 5.6 0 1 0-8.72 7.03 5.6 5.6 0 1 0 8.72-7.03zM1237.44 1.14a5.6 5.6 0 1 0-8.72 7.03 5.6 5.6 0 1 0 8.72-7.03zM1224.98 11.18a5.6 5.6 0 1 0-8.71 7.03 5.6 5.6 0 1 0 8.71-7.03zM1277.21-51.5a5.6 5.6 0 1 0-8.72 7.03 5.6 5.6 0 1 0 8.72-7.03zM1264.75-41.45a5.6 5.6 0 1 0-8.71 7.03 5.6 5.6 0 1 0 8.71-7.03zM1252.3-31.41a5.6 5.6 0 1 0-8.72 7.03 5.6 5.6 0 1 0 8.72-7.03zM1239.85-21.36a5.6 5.6 0 1 0-8.72 7.03 5.6 5.6 0 1 0 8.72-7.03z" fill="rgba(140, 140, 140, 1)"></path><path d="M489.61 221.89a5.6 5.6 0 1 0 10.4 4.15 5.6 5.6 0 1 0-10.4-4.15zM504.47 227.82a5.6 5.6 0 1 0 10.4 4.16 5.6 5.6 0 1 0-10.4-4.16zM519.33 233.76a5.6 5.6 0 1 0 10.4 4.15 5.6 5.6 0 1 0-10.4-4.15zM534.19 239.69a5.6 5.6 0 1 0 10.4 4.15 5.6 5.6 0 1 0-10.4-4.15z" stroke="rgba(255, 138, 0, 1)" stroke-width="1.55"></path><path d="M1456.85 348.08 L1567.1100000000001 262.6L1608.5370508951012 401.89705089510124z" fill="rgba(255, 138, 0, 1)"></path><circle r="91.74756327826493" cx="1146.31" cy="288.99" stroke="rgba(255, 138, 0, 1)" stroke-width="1.7" stroke-dasharray="4, 4"></circle><rect width="300" height="300" clip-path="url(&quot;#SvgjsClipPath1153&quot;)" x="697.9" y="343.53" fill="url(&quot;#SvgjsPattern1154&quot;)" transform="rotate(10.46, 847.9, 493.53)"></rect><rect width="132" height="132" clip-path="url(&quot;#SvgjsClipPath1155&quot;)" x="201.03" y="422.55" fill="url(&quot;#SvgjsPattern1156&quot;)" transform="rotate(316.63, 267.03, 488.55)"></rect><rect width="219.56" height="219.56" clip-path="url(&quot;#SvgjsClipPath1157&quot;)" x="-81.15" y="-0.1" fill="url(&quot;#SvgjsPattern1158&quot;)" transform="rotate(325.73, 28.63, 109.68)"></rect><circle r="46.666666666666664" cx="25.28" cy="15.66" stroke="rgba(140, 140, 140, 1)" stroke-width="2.33" stroke-dasharray="2, 2"></circle><path d="M780.52 99.96a5.6 5.6 0 1 0-10.87-2.71 5.6 5.6 0 1 0 10.87 2.71zM765 96.09a5.6 5.6 0 1 0-10.87-2.71 5.6 5.6 0 1 0 10.87 2.71zM749.47 92.22a5.6 5.6 0 1 0-10.86-2.71 5.6 5.6 0 1 0 10.86 2.71zM733.95 88.34a5.6 5.6 0 1 0-10.87-2.7 5.6 5.6 0 1 0 10.87 2.7zM815.44 92.17a5.6 5.6 0 1 0-10.87-2.71 5.6 5.6 0 1 0 10.87 2.71zM799.92 88.3a5.6 5.6 0 1 0-10.87-2.71 5.6 5.6 0 1 0 10.87 2.71zM784.39 84.43a5.6 5.6 0 1 0-10.86-2.71 5.6 5.6 0 1 0 10.86 2.71zM768.87 80.56a5.6 5.6 0 1 0-10.87-2.71 5.6 5.6 0 1 0 10.87 2.71z" stroke="rgba(255, 138, 0, 1)" stroke-width="2.37" stroke-dasharray="4, 4"></path><rect width="228" height="228" clip-path="url(&quot;#SvgjsClipPath1159&quot;)" x="296.51" y="351.2" fill="url(&quot;#SvgjsPattern1160&quot;)" transform="rotate(89.34, 410.51, 465.2)"></rect><path d="M31.09 472.69 L79.32000000000001 467.72L89.41813039957029 504.4181303995703z" fill="rgba(255, 138, 0, 1)"></path><rect width="180" height="180" clip-path="url(&quot;#SvgjsClipPath1161&quot;)" x="510.23" y="161.09" fill="url(&quot;#SvgjsPattern1162&quot;)" transform="rotate(265.58, 600.23, 251.09)"></rect></g><defs><mask id="SvgjsMask1152"><rect width="1440" height="560" fill="#ffffff"></rect></mask><pattern x="0" y="0" width="300" height="6" patternUnits="userSpaceOnUse" id="SvgjsPattern1154"><rect width="300" height="3" x="0" y="0" fill="rgba(140, 140, 140, 1)"></rect><rect width="300" height="3" x="0" y="3" fill="rgba(0, 0, 0, 0)"></rect></pattern><clipPath id="SvgjsClipPath1153"><circle r="75" cx="847.9" cy="493.53"></circle></clipPath><pattern x="0" y="0" width="132" height="13.2" patternUnits="userSpaceOnUse" id="SvgjsPattern1156"><rect width="132" height="6.6" x="0" y="0" fill="rgba(216, 215, 215, 1)"></rect><rect width="132" height="6.6" x="0" y="6.6" fill="rgba(0, 0, 0, 0)"></rect></pattern><clipPath id="SvgjsClipPath1155"><circle r="33" cx="267.03" cy="488.55"></circle></clipPath><pattern x="0" y="0" width="9.98" height="9.98" patternUnits="userSpaceOnUse" id="SvgjsPattern1158"><path d="M0 9.98L4.99 0L9.98 9.98" stroke="rgba(255, 138, 0, 1)" fill="none"></path></pattern><clipPath id="SvgjsClipPath1157"><circle r="54.89" cx="28.63" cy="109.68"></circle></clipPath><pattern x="0" y="0" width="6" height="6" patternUnits="userSpaceOnUse" id="SvgjsPattern1160"><path d="M3 1L3 5M1 3L5 3" stroke="rgba(255, 138, 0, 1)" fill="none" stroke-width="1"></path></pattern><clipPath id="SvgjsClipPath1159"><circle r="57" cx="410.51" cy="465.2"></circle></clipPath><pattern x="0" y="0" width="6" height="6" patternUnits="userSpaceOnUse" id="SvgjsPattern1162"><path d="M3 1L3 5M1 3L5 3" stroke="rgba(255, 138, 0, 1)" fill="none" stroke-width="1.06"></path></pattern><clipPath id="SvgjsClipPath1161"><circle r="45" cx="600.23" cy="251.09"></circle></clipPath></defs></svg>