<svg xmlns="http://www.w3.org/2000/svg" version="1.1" xmlns:xlink="http://www.w3.org/1999/xlink" xmlns:svgjs="http://svgjs.dev/svgjs" width="1440" height="560" preserveAspectRatio="none" viewBox="0 0 1440 560"><g mask="url(&quot;#SvgjsMask1080&quot;)" fill="none"><circle r="63.517378233984246" cx="637.02" cy="257.76" fill="rgba(140, 140, 140, 1)"></circle><rect width="348" height="348" clip-path="url(&quot;#SvgjsClipPath1081&quot;)" x="483.44" y="351.92" fill="url(&quot;#SvgjsPattern1082&quot;)" transform="rotate(311.81, 657.44, 525.92)"></rect><rect width="232.56" height="232.56" clip-path="url(&quot;#SvgjsClipPath1083&quot;)" x="170" y="224.32" fill="url(&quot;#SvgjsPattern1084&quot;)" transform="rotate(279.27, 286.28, 340.6)"></rect><rect width="360" height="360" clip-path="url(&quot;#SvgjsClipPath1085&quot;)" x="1220.72" y="50.92" fill="url(&quot;#SvgjsPattern1086&quot;)" transform="rotate(274.85, 1400.72, 230.92)"></rect><rect width="302.12" height="302.12" clip-path="url(&quot;#SvgjsClipPath1087&quot;)" x="-119.85" y="382.19" fill="url(&quot;#SvgjsPattern1088&quot;)" transform="rotate(138.27, 31.21, 533.25)"></rect><rect width="312" height="312" clip-path="url(&quot;#SvgjsClipPath1089&quot;)" x="1139.87" y="332.03" fill="url(&quot;#SvgjsPattern1090&quot;)" transform="rotate(12.09, 1295.87, 488.03)"></rect><path d="M576.58 466.79L585.23 476.23 577.93 486.74 586.58 496.18 579.28 506.7 587.93 516.14 580.63 526.65M568.6 467.33L577.25 476.77 569.95 487.28 578.6 496.72 571.3 507.24 579.95 516.68 572.65 527.19" stroke="rgba(140, 140, 140, 1)" stroke-width="1.02" stroke-dasharray="2, 2"></path><rect width="132" height="132" clip-path="url(&quot;#SvgjsClipPath1091&quot;)" x="725.69" y="102.42" fill="url(&quot;#SvgjsPattern1092&quot;)" transform="rotate(143.33, 791.69, 168.42)"></rect><path d="M590.15 26.41 L657.1 46.82L591.058242696124 69.18175730387594z" fill="rgba(255, 138, 0, 1)"></path><path d="M0 0 " stroke="rgba(255, 138, 0, 1)" stroke-width="1.75" stroke-dasharray="3, 3"></path><rect width="216" height="216" clip-path="url(&quot;#SvgjsClipPath1093&quot;)" x="508.71" y="13.36" fill="url(&quot;#SvgjsPattern1094&quot;)" transform="rotate(358.88, 616.71, 121.36)"></rect><circle r="46.666666666666664" cx="801.86" cy="552.45" fill="rgba(216, 215, 215, 1)"></circle></g><defs><mask id="SvgjsMask1080"><rect width="1440" height="560" fill="#ffffff"></rect></mask><pattern x="0" y="0" width="348" height="6" patternUnits="userSpaceOnUse" id="SvgjsPattern1082"><rect width="348" height="3" x="0" y="0" fill="rgba(140, 140, 140, 1)"></rect><rect width="348" height="3" x="0" y="3" fill="rgba(0, 0, 0, 0)"></rect></pattern><clipPath id="SvgjsClipPath1081"><circle r="87" cx="657.44" cy="525.92"></circle></clipPath><pattern x="0" y="0" width="232.56" height="12.92" patternUnits="userSpaceOnUse" id="SvgjsPattern1084"><rect width="232.56" height="6.46" x="0" y="0" fill="rgba(255, 138, 0, 1)"></rect><rect width="232.56" height="6.46" x="0" y="6.46" fill="rgba(0, 0, 0, 0)"></rect></pattern><clipPath id="SvgjsClipPath1083"><circle r="58.14" cx="286.28" cy="340.6"></circle></clipPath><pattern x="0" y="0" width="6" height="6" patternUnits="userSpaceOnUse" id="SvgjsPattern1086"><path d="M0 6L3 0L6 6" stroke="rgba(140, 140, 140, 1)" fill="none"></path></pattern><clipPath id="SvgjsClipPath1085"><circle r="90" cx="1400.72" cy="230.92"></circle></clipPath><pattern x="0" y="0" width="11.62" height="11.62" patternUnits="userSpaceOnUse" id="SvgjsPattern1088"><path d="M5.81 1L5.81 10.62M1 5.81L10.62 5.81" stroke="rgba(140, 140, 140, 1)" fill="none" stroke-width="1"></path></pattern><clipPath id="SvgjsClipPath1087"><circle r="75.53" cx="31.21" cy="533.25"></circle></clipPath><pattern x="0" y="0" width="312" height="6" patternUnits="userSpaceOnUse" id="SvgjsPattern1090"><rect width="312" height="3" x="0" y="0" fill="rgba(216, 215, 215, 1)"></rect><rect width="312" height="3" x="0" y="3" fill="rgba(0, 0, 0, 0)"></rect></pattern><clipPath id="SvgjsClipPath1089"><circle r="78" cx="1295.87" cy="488.03"></circle></clipPath><pattern x="0" y="0" width="6" height="6" patternUnits="userSpaceOnUse" id="SvgjsPattern1092"><path d="M3 1L3 5M1 3L5 3" stroke="rgba(140, 140, 140, 1)" fill="none" stroke-width="1"></path></pattern><clipPath id="SvgjsClipPath1091"><circle r="33" cx="791.69" cy="168.42"></circle></clipPath><pattern x="0" y="0" width="216" height="6" patternUnits="userSpaceOnUse" id="SvgjsPattern1094"><rect width="216" height="3" x="0" y="0" fill="rgba(140, 140, 140, 1)"></rect><rect width="216" height="3" x="0" y="3" fill="rgba(0, 0, 0, 0)"></rect></pattern><clipPath id="SvgjsClipPath1093"><circle r="54" cx="616.71" cy="121.36"></circle></clipPath></defs></svg>