<svg xmlns="http://www.w3.org/2000/svg" version="1.1" xmlns:xlink="http://www.w3.org/1999/xlink" xmlns:svgjs="http://svgjs.dev/svgjs" width="1440" height="560" preserveAspectRatio="none" viewBox="0 0 1440 560"><g mask="url(&quot;#SvgjsMask1104&quot;)" fill="none"><rect width="60" height="60" clip-path="url(&quot;#SvgjsClipPath1105&quot;)" x="392.24" y="435.58" fill="url(&quot;#SvgjsPattern1106&quot;)" transform="rotate(141.66, 422.24, 465.58)"></rect><rect width="300" height="300" clip-path="url(&quot;#SvgjsClipPath1107&quot;)" x="170.18" y="-26.64" fill="url(&quot;#SvgjsPattern1108&quot;)" transform="rotate(202.8, 320.18, 123.36)"></rect><path d="M739.12 71.24L749.28 63.45 759.11 71.65 769.28 63.85 779.11 72.06 789.27 64.26 799.11 72.47M738.95 79.24L749.12 71.44 758.95 79.65 769.11 71.85 778.95 80.06 789.11 72.26 798.94 80.46M738.79 87.24L748.95 79.44 758.79 87.65 768.95 79.85 778.78 88.05 788.94 80.26 798.78 88.46" stroke="rgba(216, 215, 215, 1)" stroke-width="1.87" stroke-dasharray="4, 4"></path><path d="M1255.25 24.66L1243.39 19.82 1245.51 7.19 1233.66 2.35 1235.78-10.28 1223.92-15.12 1226.05-27.75M1262.23 20.77L1250.38 15.93 1252.5 3.3 1240.65-1.54 1242.77-14.17 1230.91-19.02 1233.04-31.64" stroke="rgba(216, 215, 215, 1)" stroke-width="1.43" stroke-dasharray="4, 4"></path><rect width="160.08" height="160.08" clip-path="url(&quot;#SvgjsClipPath1109&quot;)" x="70.31" y="358.27" fill="url(&quot;#SvgjsPattern1110&quot;)" transform="rotate(327.87, 150.35, 438.31)"></rect><path d="M128.73 296.73L136.24 286.36 148.01 291.41 155.52 281.04 167.29 286.09 174.8 275.72 186.57 280.78M130.85 304.44L138.37 294.07 150.13 299.12 157.65 288.75 169.41 293.8 176.93 283.43 188.69 288.49M132.98 312.15L140.49 301.78 152.26 306.83 159.77 296.46 171.54 301.52 179.05 291.15 190.82 296.2" stroke="rgba(140, 140, 140, 1)" stroke-width="2.01" stroke-dasharray="2, 2"></path><rect width="348" height="348" clip-path="url(&quot;#SvgjsClipPath1111&quot;)" x="-151.86" y="222.45" fill="url(&quot;#SvgjsPattern1112&quot;)" transform="rotate(123.14, 22.14, 396.45)"></rect><path d="M69.74 112.12a5.6 5.6 0 1 0-8.34-7.48 5.6 5.6 0 1 0 8.34 7.48zM57.83 101.43a5.6 5.6 0 1 0-8.33-7.48 5.6 5.6 0 1 0 8.33 7.48zM45.93 90.74a5.6 5.6 0 1 0-8.33-7.48 5.6 5.6 0 1 0 8.33 7.48zM34.03 80.05a5.6 5.6 0 1 0-8.34-7.49 5.6 5.6 0 1 0 8.34 7.49zM104.23 121.6a5.6 5.6 0 1 0-8.33-7.48 5.6 5.6 0 1 0 8.33 7.48zM92.33 110.91a5.6 5.6 0 1 0-8.33-7.48 5.6 5.6 0 1 0 8.33 7.48zM80.43 100.22a5.6 5.6 0 1 0-8.33-7.49 5.6 5.6 0 1 0 8.33 7.49zM68.52 89.53a5.6 5.6 0 1 0-8.33-7.49 5.6 5.6 0 1 0 8.33 7.49zM138.73 131.08a5.6 5.6 0 1 0-8.33-7.48 5.6 5.6 0 1 0 8.33 7.48zM126.83 120.39a5.6 5.6 0 1 0-8.33-7.48 5.6 5.6 0 1 0 8.33 7.48zM114.93 109.7a5.6 5.6 0 1 0-8.34-7.49 5.6 5.6 0 1 0 8.34 7.49zM103.02 99.01a5.6 5.6 0 1 0-8.33-7.49 5.6 5.6 0 1 0 8.33 7.49z" stroke="rgba(140, 140, 140, 1)" stroke-width="2.89" stroke-dasharray="2, 2"></path><rect width="168" height="168" clip-path="url(&quot;#SvgjsClipPath1113&quot;)" x="855.33" y="39.4" fill="url(&quot;#SvgjsPattern1114&quot;)" transform="rotate(345.24, 939.33, 123.4)"></rect><circle r="46.666666666666664" cx="1193.92" cy="504.24" fill="rgba(140, 140, 140, 1)"></circle><rect width="312" height="312" clip-path="url(&quot;#SvgjsClipPath1115&quot;)" x="999.97" y="-90.03" fill="url(&quot;#SvgjsPattern1116&quot;)" transform="rotate(136.87, 1155.97, 65.97)"></rect><rect width="127.8" height="127.8" clip-path="url(&quot;#SvgjsClipPath1117&quot;)" x="163.29" y="438.8" fill="url(&quot;#SvgjsPattern1118&quot;)" transform="rotate(40.42, 227.19, 502.7)"></rect></g><defs><mask id="SvgjsMask1104"><rect width="1440" height="560" fill="#ffffff"></rect></mask><pattern x="0" y="0" width="6" height="6" patternUnits="userSpaceOnUse" id="SvgjsPattern1106"><path d="M0 6L3 0L6 6" stroke="rgba(140, 140, 140, 1)" fill="none"></path></pattern><clipPath id="SvgjsClipPath1105"><circle r="15" cx="422.24" cy="465.58"></circle></clipPath><pattern x="0" y="0" width="6" height="6" patternUnits="userSpaceOnUse" id="SvgjsPattern1108"><path d="M3 1L3 5M1 3L5 3" stroke="rgba(255, 138, 0, 1)" fill="none" stroke-width="1.59"></path></pattern><clipPath id="SvgjsClipPath1107"><circle r="75" cx="320.18" cy="123.36"></circle></clipPath><pattern x="0" y="0" width="160.08" height="13.34" patternUnits="userSpaceOnUse" id="SvgjsPattern1110"><rect width="160.08" height="6.67" x="0" y="0" fill="rgba(255, 138, 0, 1)"></rect><rect width="160.08" height="6.67" x="0" y="6.67" fill="rgba(0, 0, 0, 0)"></rect></pattern><clipPath id="SvgjsClipPath1109"><circle r="40.02" cx="150.35" cy="438.31"></circle></clipPath><pattern x="0" y="0" width="6" height="6" patternUnits="userSpaceOnUse" id="SvgjsPattern1112"><path d="M3 1L3 5M1 3L5 3" stroke="rgba(255, 138, 0, 1)" fill="none" stroke-width="1.24"></path></pattern><clipPath id="SvgjsClipPath1111"><circle r="87" cx="22.14" cy="396.45"></circle></clipPath><pattern x="0" y="0" width="168" height="6" patternUnits="userSpaceOnUse" id="SvgjsPattern1114"><rect width="168" height="3" x="0" y="0" fill="rgba(140, 140, 140, 1)"></rect><rect width="168" height="3" x="0" y="3" fill="rgba(0, 0, 0, 0)"></rect></pattern><clipPath id="SvgjsClipPath1113"><circle r="42" cx="939.33" cy="123.4"></circle></clipPath><pattern x="0" y="0" width="312" height="12" patternUnits="userSpaceOnUse" id="SvgjsPattern1116"><rect width="312" height="6" x="0" y="0" fill="rgba(140, 140, 140, 1)"></rect><rect width="312" height="6" x="0" y="6" fill="rgba(0, 0, 0, 0)"></rect></pattern><clipPath id="SvgjsClipPath1115"><circle r="78" cx="1155.97" cy="65.97"></circle></clipPath><pattern x="0" y="0" width="12.78" height="12.78" patternUnits="userSpaceOnUse" id="SvgjsPattern1118"><path d="M6.39 1L6.39 11.78M1 6.39L11.78 6.39" stroke="rgba(216, 215, 215, 1)" fill="none" stroke-width="4.7"></path></pattern><clipPath id="SvgjsClipPath1117"><circle r="31.95" cx="227.19" cy="502.7"></circle></clipPath></defs></svg>