<svg xmlns="http://www.w3.org/2000/svg" version="1.1" xmlns:xlink="http://www.w3.org/1999/xlink" xmlns:svgjs="http://svgjs.dev/svgjs" width="1440" height="560" preserveAspectRatio="none" viewBox="0 0 1440 560"><g mask="url(&quot;#SvgjsMask1166&quot;)" fill="none"><path d="M 568,-248.82068027770785 C 669,-192.82 1052,-80.82 1073,31.179319722292156 C 1094,143.18 737.6,199.18 673,311.1793197222922 C 608.4,423.18 785.4,541.42 750,591.1793197222921 C 714.6,640.94 546.8,566.24 496,560" stroke="rgba(145, 145, 145, 1)" stroke-width="2"></path><path d="M 792,-499.56931090869193 C 746.6,-443.57 568.8,-331.57 565,-219.56931090869193 C 561.2,-107.57 782,-51.57 773,60.43068909130807 C 764,172.43 475.4,240.52 520,340.43068909130807 C 564.6,440.34 900.8,516.09 996,560" stroke="rgba(145, 145, 145, 1)" stroke-width="2"></path><path d="M 812,-10.789843248378986 C 728.8,45.21 375.4,157.21 396,269.210156751621 C 416.6,381.21 915,437.21 915,549.2101567516211 C 915,661.21 373,827.05 396,829.2101567516211 C 419,831.37 903.2,613.84 1030,560" stroke="rgba(145, 145, 145, 1)" stroke-width="2"></path></g><defs><mask id="SvgjsMask1166"><rect width="1440" height="560" fill="#ffffff"></rect></mask></defs></svg>